<svg width="800" height="600" viewBox="0 0 800 600" fill="none" xmlns="http://www.w3.org/2000/svg">
  <defs>
    <linearGradient id="g1" x1="0" y1="0" x2="800" y2="600" gradientUnits="userSpaceOnUse">
      <stop stop-color="#E6F0E8"/>
      <stop offset="1" stop-color="#D7E4D9"/>
    </linearGradient>
  </defs>
  <rect width="800" height="600" fill="url(#g1)"/>
  <path d="M0 380C80 350 140 365 220 390C300 415 360 410 430 375C500 340 560 330 640 350C700 365 750 385 800 398V600H0V380Z" fill="#C3D6C8"/>
  <path d="M0 265C75 245 140 255 220 280C290 302 350 298 420 270C500 238 575 232 650 250C710 265 760 290 800 310V398C750 385 700 365 640 350C560 330 500 340 430 375C360 410 300 415 220 390C140 365 80 350 0 380V265Z" fill="#B3C9B9"/>
  <path d="M120 0L80 600" stroke="white" stroke-opacity="0.35" stroke-width="2"/>
  <path d="M280 0L240 600" stroke="white" stroke-opacity="0.35" stroke-width="2"/>
  <path d="M440 0L400 600" stroke="white" stroke-opacity="0.35" stroke-width="2"/>
  <path d="M600 0L560 600" stroke="white" stroke-opacity="0.35" stroke-width="2"/>
  <path d="M760 0L720 600" stroke="white" stroke-opacity="0.35" stroke-width="2"/>
  <path d="M0 120H800" stroke="white" stroke-opacity="0.25" stroke-width="2"/>
  <path d="M0 240H800" stroke="white" stroke-opacity="0.25" stroke-width="2"/>
  <path d="M0 360H800" stroke="white" stroke-opacity="0.25" stroke-width="2"/>
  <path d="M0 480H800" stroke="white" stroke-opacity="0.25" stroke-width="2"/>
</svg>
